<svg xmlns="http://www.w3.org/2000/svg" viewBox="0 0 560 120" role="img" aria-labelledby="title desc">
  <title id="title">RxArogya logo option C</title>
  <desc id="desc">Compact orbit variant with stronger orange-blue enterprise balance.</desc>
  <defs>
    <linearGradient id="c-orange" x1="0%" y1="0%" x2="100%" y2="100%">
      <stop offset="0%" stop-color="#ffc37d"/>
      <stop offset="100%" stop-color="#f28c28"/>
    </linearGradient>
    <linearGradient id="c-blue" x1="0%" y1="0%" x2="100%" y2="100%">
      <stop offset="0%" stop-color="#8ab9ff"/>
      <stop offset="100%" stop-color="#3c7be0"/>
    </linearGradient>
  </defs>

  <g transform="translate(20 16)">
    <path d="M30 42h24V19c0-6 4-11 10-11h12v20c0 8-6 14-15 14H30z" fill="url(#c-orange)"/>
    <path d="M54 74V42h30v17c0 9-6 15-14 15H54z" fill="url(#c-blue)"/>
    <path d="M76 42h20v31c0 8-6 15-15 15H67V74h9z" fill="#26323f" opacity=".92"/>
    <path d="M54 88V61h12v10h12v17H66c-7 0-12-5-12-12z" fill="url(#c-orange)"/>

    <path d="M12 68c12-27 36-40 69-38 6 0 13 1 18 3" fill="none" stroke="#26323f" stroke-width="5.2" stroke-linecap="round"/>
    <path d="M22 91c20 8 41 0 60-26" fill="none" stroke="#f28c28" stroke-width="4.8" stroke-linecap="round"/>
    <path d="M28 24c17-8 35-6 52 6" fill="none" stroke="#9eb2c8" stroke-width="2.5" stroke-linecap="round" opacity=".45"/>
    <circle cx="12" cy="68" r="5" fill="#ffffff" stroke="#26323f" stroke-width="2.3"/>
    <circle cx="22" cy="91" r="5" fill="#ffffff" stroke="#f28c28" stroke-width="2.3"/>
  </g>

  <text x="138" y="55" fill="#26323f" font-family="Inter, Segoe UI, Arial, sans-serif" font-size="39" font-weight="700" letter-spacing="-1">Rx</text>
  <text x="198" y="55" fill="#3c7be0" font-family="Inter, Segoe UI, Arial, sans-serif" font-size="39" font-weight="700" letter-spacing="-1">Arogya</text>
  <path d="M198 69h195" stroke="#d4dde7" stroke-width="2.3" stroke-linecap="round"/>
  <text x="198" y="91" fill="#f28c28" font-family="Inter, Segoe UI, Arial, sans-serif" font-size="13.5" font-weight="700" letter-spacing="2.2">SIMPLIFY PHARMACY</text>
</svg>
