<svg xmlns="http://www.w3.org/2000/svg" viewBox="0 0 460 100" role="img" aria-labelledby="title desc">
  <title id="title">RxArogya concept C</title>
  <desc id="desc">Minimal corporate wordmark concept for RxArogya.</desc>
  <defs>
    <linearGradient id="accentC" x1="0%" y1="0%" x2="100%" y2="100%">
      <stop offset="0%" stop-color="#f5b566"/>
      <stop offset="100%" stop-color="#f28c28"/>
    </linearGradient>
  </defs>

  <g transform="translate(8 14)">
    <rect x="0" y="0" width="72" height="72" rx="22" fill="#17212c"/>
    <path d="M20 48c8-21 22-31 36-27 6 2 11 6 14 11" fill="none" stroke="url(#accentC)" stroke-linecap="round" stroke-width="3.8"/>
    <path d="M19 55c11 4 24 3 35-3 10-5 16-15 19-30" fill="none" opacity=".9" stroke="url(#accentC)" stroke-linecap="round" stroke-width="3.8"/>
    <circle cx="18" cy="55" r="3.8" fill="#f28c28"/>
    <circle cx="69" cy="21" r="3.8" fill="#f28c28"/>
    <path d="M28 47V22h10c8 0 13 4 13 11 0 4-2 7-6 9l9 14h-9l-8-12h-1v12zm8-18v9h2c4 0 6-2 6-5s-2-4-6-4z" fill="#ffffff"/>
    <path d="M48 54l8 9 8-9h-6l-2 2-2-2z" fill="#4d8ff0"/>
  </g>

  <text x="100" y="46" fill="#171b22" font-family="Inter, Segoe UI, Arial, sans-serif" font-size="35" font-weight="700" letter-spacing="-0.8">RxArogya</text>
  <text x="100" y="66" fill="#5f6b7f" font-family="Inter, Segoe UI, Arial, sans-serif" font-size="13" font-weight="600">Simplify Pharmacy</text>
  <path d="M100 74h122" stroke="#f28c28" stroke-width="3" stroke-linecap="round"/>
</svg>
