<svg xmlns="http://www.w3.org/2000/svg" viewBox="0 0 560 120" role="img" aria-labelledby="title desc">
  <title id="title">RxArogya logo option A</title>
  <desc id="desc">Enterprise pharmacy logo with cross orbit mark, dark wordmark, and orange accent.</desc>
  <defs>
    <linearGradient id="a-orange" x1="0%" y1="0%" x2="100%" y2="100%">
      <stop offset="0%" stop-color="#ffb769"/>
      <stop offset="100%" stop-color="#f28c28"/>
    </linearGradient>
    <linearGradient id="a-blue" x1="0%" y1="0%" x2="100%" y2="100%">
      <stop offset="0%" stop-color="#69a8ff"/>
      <stop offset="100%" stop-color="#2f74da"/>
    </linearGradient>
    <linearGradient id="a-stem" x1="0%" y1="0%" x2="100%" y2="100%">
      <stop offset="0%" stop-color="#ffcc85"/>
      <stop offset="100%" stop-color="#f0a448"/>
    </linearGradient>
  </defs>

  <g transform="translate(14 14)">
    <path d="M28 42h25V18c0-6 5-11 11-11h14v21c0 9-7 14-16 14H28z" fill="url(#a-orange)"/>
    <path d="M53 76V42h34v19c0 10-6 15-15 15H53z" fill="url(#a-blue)"/>
    <path d="M78 42h22v33c0 9-7 16-16 16H67V76h11z" fill="#1f2731" opacity=".92"/>
    <path d="M53 91V64h14v12h13v15H67c-8 0-14-6-14-14z" fill="url(#a-stem)"/>

    <path d="M11 71c13-29 39-44 74-42 8 0 16 1 22 3" fill="none" stroke="#1f2731" stroke-width="5.4" stroke-linecap="round"/>
    <path d="M21 25c20-9 40-6 60 9" fill="none" stroke="#9fb3ca" stroke-width="2.6" stroke-linecap="round" opacity=".45"/>
    <path d="M30 95c25 9 47 0 66-28" fill="none" stroke="#f28c28" stroke-width="5" stroke-linecap="round"/>
    <circle cx="11" cy="71" r="5.2" fill="#ffffff" stroke="#1f2731" stroke-width="2.4"/>
    <circle cx="30" cy="95" r="5.2" fill="#ffffff" stroke="#f28c28" stroke-width="2.4"/>
  </g>

  <text x="140" y="56" fill="#1f2731" font-family="Inter, Segoe UI, Arial, sans-serif" font-size="40" font-weight="700" letter-spacing="-1.1">Rx</text>
  <text x="201" y="56" fill="#f28c28" font-family="Inter, Segoe UI, Arial, sans-serif" font-size="40" font-weight="700" letter-spacing="-1.1">Arogya</text>
  <path d="M201 70h192" stroke="#d4dde7" stroke-width="2.4" stroke-linecap="round"/>
  <text x="201" y="92" fill="#6b7280" font-family="Inter, Segoe UI, Arial, sans-serif" font-size="13.5" font-weight="700" letter-spacing="2.2">SIMPLIFY PHARMACY</text>
</svg>
