<svg xmlns="http://www.w3.org/2000/svg" viewBox="0 0 560 120" role="img" aria-labelledby="title desc">
  <title id="title">RxArogya symbol option A</title>
  <desc id="desc">Compact enterprise pharmacy logo with a structured medical cross and orange motion accent.</desc>
  <defs>
    <linearGradient id="aBlue" x1="0%" y1="0%" x2="100%" y2="100%">
      <stop offset="0%" stop-color="#6faeff"/>
      <stop offset="100%" stop-color="#2f74da"/>
    </linearGradient>
    <linearGradient id="aOrange" x1="0%" y1="0%" x2="100%" y2="100%">
      <stop offset="0%" stop-color="#ffb769"/>
      <stop offset="100%" stop-color="#f28c28"/>
    </linearGradient>
  </defs>

  <g transform="translate(18 14)">
    <rect x="10" y="10" width="84" height="84" rx="24" fill="#ffffff" stroke="#dce5ef" stroke-width="2.2"/>
    <path d="M45 24h14c6 0 11 5 11 11v12h12c6 0 11 5 11 11v14H70v12c0 6-5 11-11 11H45V72H33c-6 0-11-5-11-11V47h23V35c0-6 5-11 11-11z" fill="url(#aBlue)"/>
    <path d="M28 79c16 7 33 3 48-14" fill="none" stroke="url(#aOrange)" stroke-width="5.6" stroke-linecap="round"/>
    <circle cx="28" cy="79" r="5" fill="#ffffff" stroke="#f28c28" stroke-width="2.4"/>
  </g>

  <text x="130" y="56" fill="#23262b" font-family="Inter, Segoe UI, Arial, sans-serif" font-size="42" font-weight="800" letter-spacing="-1.2">RxArogya</text>
  <path d="M130 69h210" stroke="#d7e0ea" stroke-width="2.4" stroke-linecap="round"/>
  <text x="130" y="90" fill="#717784" font-family="Inter, Segoe UI, Arial, sans-serif" font-size="13.5" font-weight="700" letter-spacing="2.2">SIMPLIFY PHARMACY</text>
</svg>
