<svg xmlns="http://www.w3.org/2000/svg" viewBox="0 0 560 120" role="img" aria-labelledby="title desc">
  <title id="title">RxArogya symbol option B</title>
  <desc id="desc">Minimal shield-like pharmacy mark with blue cross core and orange edge accent.</desc>
  <defs>
    <linearGradient id="bBlue" x1="0%" y1="0%" x2="100%" y2="100%">
      <stop offset="0%" stop-color="#83b8ff"/>
      <stop offset="100%" stop-color="#2f74da"/>
    </linearGradient>
    <linearGradient id="bOrange" x1="0%" y1="0%" x2="100%" y2="100%">
      <stop offset="0%" stop-color="#ffc27a"/>
      <stop offset="100%" stop-color="#f28c28"/>
    </linearGradient>
  </defs>

  <g transform="translate(18 14)">
    <path d="M52 8c22 0 38 8 38 28v24c0 22-16 34-38 40-22-6-38-18-38-40V36C14 16 30 8 52 8z" fill="#ffffff" stroke="#dce5ef" stroke-width="2.2"/>
    <path d="M46 24h12v16h16v12H58v16H46V52H30V40h16z" fill="url(#bBlue)"/>
    <path d="M24 74c10 10 22 14 28 16 14-5 25-12 31-26" fill="none" stroke="url(#bOrange)" stroke-width="5.2" stroke-linecap="round"/>
    <circle cx="24" cy="74" r="4.8" fill="#ffffff" stroke="#f28c28" stroke-width="2.3"/>
  </g>

  <text x="130" y="56" fill="#23262b" font-family="Inter, Segoe UI, Arial, sans-serif" font-size="42" font-weight="800" letter-spacing="-1.2">RxArogya</text>
  <text x="130" y="88" fill="#2f74da" font-family="Inter, Segoe UI, Arial, sans-serif" font-size="13.5" font-weight="800" letter-spacing="2.1">SIMPLIFY PHARMACY</text>
</svg>
