<svg xmlns="http://www.w3.org/2000/svg" viewBox="0 0 560 120" role="img" aria-labelledby="title desc">
  <title id="title">RxArogya symbol option C</title>
  <desc id="desc">Modern pharmacy logo with linked cross geometry and a compact orange orbit cut.</desc>
  <defs>
    <linearGradient id="cBlue" x1="0%" y1="0%" x2="100%" y2="100%">
      <stop offset="0%" stop-color="#6ea9ff"/>
      <stop offset="100%" stop-color="#2f74da"/>
    </linearGradient>
    <linearGradient id="cOrange" x1="0%" y1="0%" x2="100%" y2="100%">
      <stop offset="0%" stop-color="#ffbc72"/>
      <stop offset="100%" stop-color="#f28c28"/>
    </linearGradient>
  </defs>

  <g transform="translate(16 14)">
    <rect x="8" y="8" width="88" height="88" rx="22" fill="#ffffff" stroke="#dde6ef" stroke-width="2.1"/>
    <path d="M50 18h10c7 0 12 5 12 12v12h12c7 0 12 5 12 12v10c0 7-5 12-12 12H72v12c0 7-5 12-12 12H50c-7 0-12-5-12-12V76H26c-7 0-12-5-12-12V54c0-7 5-12 12-12h12V30c0-7 5-12 12-12z" fill="#edf4ff"/>
    <path d="M50 26h10v18h18v10H60v18H50V54H32V44h18z" fill="url(#cBlue)"/>
    <path d="M22 76c17 8 34 4 50-13" fill="none" stroke="url(#cOrange)" stroke-width="5.4" stroke-linecap="round"/>
    <circle cx="22" cy="76" r="4.8" fill="#ffffff" stroke="#f28c28" stroke-width="2.3"/>
  </g>

  <text x="128" y="56" fill="#23262b" font-family="Inter, Segoe UI, Arial, sans-serif" font-size="42" font-weight="800" letter-spacing="-1.2">RxArogya</text>
  <path d="M128 69h216" stroke="#d7e0ea" stroke-width="2.2" stroke-linecap="round"/>
  <text x="128" y="90" fill="#f28c28" font-family="Inter, Segoe UI, Arial, sans-serif" font-size="13.5" font-weight="800" letter-spacing="2.2">SIMPLIFY PHARMACY</text>
</svg>
