<svg xmlns="http://www.w3.org/2000/svg" viewBox="0 0 560 120" role="img" aria-labelledby="title desc">
  <title id="title">RxArogya logo option B</title>
  <desc id="desc">More corporate variant with compact mark and all-dark wordmark.</desc>
  <defs>
    <linearGradient id="b-orange" x1="0%" y1="0%" x2="100%" y2="100%">
      <stop offset="0%" stop-color="#ffb96f"/>
      <stop offset="100%" stop-color="#ee8a29"/>
    </linearGradient>
    <linearGradient id="b-blue" x1="0%" y1="0%" x2="100%" y2="100%">
      <stop offset="0%" stop-color="#78b0ff"/>
      <stop offset="100%" stop-color="#2f74da"/>
    </linearGradient>
  </defs>

  <g transform="translate(18 16)">
    <path d="M34 39h21V18c0-5 4-10 10-10h11v19c0 8-6 12-14 12H34z" fill="url(#b-orange)"/>
    <path d="M55 70V39h29v16c0 8-5 13-13 13H55z" fill="url(#b-blue)"/>
    <path d="M76 39h20v29c0 9-6 15-15 15H66V70h10z" fill="#222831" opacity=".92"/>
    <path d="M55 83V59h11v10h11v14H67c-7 0-12-5-12-12z" fill="url(#b-orange)"/>

    <path d="M14 66c11-25 34-38 65-36 6 0 11 1 16 2" fill="none" stroke="#222831" stroke-width="5" stroke-linecap="round"/>
    <path d="M22 90c20 8 40 0 57-24" fill="none" stroke="#f28c28" stroke-width="4.6" stroke-linecap="round"/>
    <circle cx="14" cy="66" r="4.8" fill="#ffffff" stroke="#222831" stroke-width="2.2"/>
    <circle cx="22" cy="90" r="4.8" fill="#ffffff" stroke="#f28c28" stroke-width="2.2"/>
  </g>

  <text x="134" y="56" fill="#222831" font-family="Inter, Segoe UI, Arial, sans-serif" font-size="39" font-weight="700" letter-spacing="-1">RxArogya</text>
  <path d="M134 70h202" stroke="#d9e1ea" stroke-width="2.2" stroke-linecap="round"/>
  <text x="134" y="92" fill="#7a8391" font-family="Inter, Segoe UI, Arial, sans-serif" font-size="13.2" font-weight="700" letter-spacing="2.1">SIMPLIFY PHARMACY</text>
</svg>
