<svg xmlns="http://www.w3.org/2000/svg" viewBox="0 0 420 96" role="img" aria-labelledby="title desc">
  <title id="title">RxArogya logo light</title>
  <desc id="desc">Light wordmark for dark backgrounds.</desc>
  <defs>
    <linearGradient id="orbit" x1="10%" y1="0%" x2="90%" y2="100%">
      <stop offset="0%" stop-color="#ffb868"/>
      <stop offset="100%" stop-color="#f28727"/>
    </linearGradient>
    <linearGradient id="cross" x1="0%" y1="0%" x2="100%" y2="100%">
      <stop offset="0%" stop-color="#78a8ff"/>
      <stop offset="100%" stop-color="#2f74da"/>
    </linearGradient>
  </defs>

  <g transform="translate(6 10)">
    <path d="M15 58c7-29 27-43 45-38 9 3 15 8 18 15" fill="none" stroke="url(#orbit)" stroke-linecap="round" stroke-width="4.75"/>
    <path d="M13 63c13 5 29 5 43-3 13-7 23-19 27-37" fill="none" opacity=".88" stroke="url(#orbit)" stroke-linecap="round" stroke-width="4.75"/>
    <circle cx="12" cy="63" r="4.6" fill="#f7a24d"/>
    <circle cx="84" cy="21" r="4.6" fill="#f7a24d"/>

    <rect x="27" y="20" width="10" height="34" rx="5" fill="#f8fafc"/>
    <rect x="50" y="20" width="10" height="34" rx="5" fill="#f8fafc"/>
    <rect x="37" y="31" width="14" height="10" rx="5" fill="url(#cross)"/>

    <rect x="57" y="4" width="13" height="4" rx="2" fill="url(#cross)"/>
    <rect x="61.5" y="-0.5" width="4" height="13" rx="2" fill="url(#cross)"/>
  </g>

  <text x="104" y="48" fill="#f8fafc" font-family="Inter, Segoe UI, Arial, sans-serif" font-size="38" font-weight="700" letter-spacing="-1.1">hisaablite</text>
  <text x="106" y="70" fill="#aeb9ca" font-family="Inter, Segoe UI, Arial, sans-serif" font-size="12.5" font-weight="600" letter-spacing="2.4">MEDICAL WORKFLOW DESK</text>
</svg>
