<svg xmlns="http://www.w3.org/2000/svg" viewBox="0 0 96 96" role="img" aria-labelledby="title desc">
  <title id="title">RxArogya mark</title>
  <desc id="desc">Abstract medical workflow symbol with orbit and H letterform.</desc>
  <defs>
    <linearGradient id="orbit" x1="10%" y1="0%" x2="90%" y2="100%">
      <stop offset="0%" stop-color="#ffab52"/>
      <stop offset="100%" stop-color="#f07e1d"/>
    </linearGradient>
    <linearGradient id="cross" x1="0%" y1="0%" x2="100%" y2="100%">
      <stop offset="0%" stop-color="#4f8df6"/>
      <stop offset="100%" stop-color="#1d5fd2"/>
    </linearGradient>
  </defs>

  <g transform="translate(2 2)">
    <path d="M15 68c7-34 30-49 50-43 9 3 16 9 20 17" fill="none" stroke="url(#orbit)" stroke-linecap="round" stroke-width="5"/>
    <path d="M13 73c14 5 33 5 49-3 15-8 25-22 29-43" fill="none" opacity=".88" stroke="url(#orbit)" stroke-linecap="round" stroke-width="5"/>
    <circle cx="12" cy="73" r="5" fill="#f28c28"/>
    <circle cx="91" cy="27" r="5" fill="#f28c28"/>

    <rect x="28" y="23" width="11" height="39" rx="5.5" fill="#1d232c"/>
    <rect x="55" y="23" width="11" height="39" rx="5.5" fill="#1d232c"/>
    <rect x="39" y="35" width="16" height="11" rx="5.5" fill="url(#cross)"/>

    <rect x="63" y="7" width="14" height="4.5" rx="2.25" fill="url(#cross)"/>
    <rect x="67.75" y="2.25" width="4.5" height="14" rx="2.25" fill="url(#cross)"/>
  </g>
</svg>
